# xmcd
#
# Track frame offsets:
#  150
#  24234
#  44466
#  64935
#  85680
#  105401
#  125870
#  145646
#  165112
#  170039
#  192317
#
# Disc length: 2824 seconds
#
# Revision: 0
# Processed by: cddbd v1.5.1PL2 Copyright (c) Steve Scherf et al.
# Submitted via: Collectorz.com_Music_Collector 6.9
#
DISCID=8b0b060b
DTITLE=3rd Force - Driving Force
DYEAR=2005
DGENRE=New Age
TTITLE0=Believe In Me
TTITLE1=Ask Me Why
TTITLE2=Real Thing
TTITLE3=You Got It
TTITLE4=Get With It
TTITLE5=An Open Heart
TTITLE6=Is She Ready
TTITLE7=Gotta Gotta
TTITLE8=This Is The One (Intro)
TTITLE9=This Is The One
TTITLE10=Inside
EXTD=
EXTT0=
EXTT1=
EXTT2=
EXTT3=
EXTT4=
EXTT5=
EXTT6=
EXTT7=
EXTT8=
EXTT9=
EXTT10=
PLAYORDER=
